<svg width="1200" height="430" viewBox="0 0 1200 430" fill="none" xmlns="http://www.w3.org/2000/svg">
<g clip-path="url(#clip0_1_161)">
<path d="M1148.79 0H822.069C793.787 0 770.859 22.9275 770.859 51.21V377.93C770.859 406.212 793.787 429.14 822.069 429.14H1148.79C1177.07 429.14 1200 406.212 1200 377.93V51.21C1200 22.9275 1177.07 0 1148.79 0Z" fill="url(#paint0_linear_1_161)"/>
<path d="M55.85 300.219L0 128.359H25.9L73.52 275.039L121.74 128.359H147.64L91.78 300.219H55.86H55.85Z" fill="#2B4EED"/>
<path d="M208.391 303.798C195.581 303.798 184.341 300.988 174.671 295.378C165.001 289.768 157.481 281.938 152.111 271.868C146.741 261.798 144.051 250.128 144.051 236.838C144.051 222.748 146.701 210.538 151.991 200.198C157.281 189.858 164.661 181.858 174.131 176.208C183.601 170.558 194.621 167.738 207.191 167.738C219.761 167.738 231.501 170.778 240.731 176.868C249.961 182.958 256.861 191.608 261.441 202.828C266.011 214.048 267.821 227.368 266.871 242.808H241.931V233.738C241.771 218.778 238.931 207.718 233.401 200.558C227.871 193.398 219.451 189.818 208.161 189.818C195.671 189.818 186.281 193.758 179.991 201.638C173.701 209.518 170.561 220.898 170.561 235.768C170.561 250.638 173.701 260.888 179.991 268.648C186.281 276.408 195.351 280.288 207.201 280.288C215.001 280.288 221.741 278.518 227.431 274.978C233.121 271.438 237.561 266.368 240.741 259.758L265.201 267.518C260.191 279.058 252.591 287.988 242.411 294.318C232.221 300.648 220.891 303.808 208.401 303.808L208.391 303.798ZM162.441 242.808V223.358H254.461V242.808H162.441Z" fill="#2B4EED"/>
<path d="M289.898 300.219V171.319H312.218V208.549H315.198V300.209H289.898V300.219ZM380.488 300.219V236.849C380.488 231.829 380.068 226.679 379.228 221.389C378.388 216.099 376.798 211.179 374.448 206.649C372.098 202.119 368.798 198.459 364.538 195.669C360.278 192.879 354.728 191.489 347.888 191.489C343.428 191.489 339.208 192.229 335.238 193.699C331.258 195.169 327.778 197.539 324.798 200.799C321.808 204.059 319.458 208.359 317.748 213.689C316.038 219.029 315.178 225.509 315.178 233.149L299.668 227.299C299.668 215.599 301.858 205.279 306.228 196.329C310.608 187.379 316.888 180.399 325.088 175.379C333.288 170.369 343.188 167.859 354.808 167.859C363.718 167.859 371.198 169.289 377.248 172.159C383.298 175.029 388.208 178.779 391.988 183.439C395.768 188.099 398.648 193.169 400.638 198.659C402.628 204.149 403.978 209.519 404.698 214.769C405.418 220.019 405.768 224.639 405.768 228.619V300.229H380.468L380.488 300.219Z" fill="#2B4EED"/>
<path d="M422.5 191.368V171.318H510.58V191.368H422.5ZM510.58 300.218C502.46 301.808 494.51 302.488 486.71 302.248C478.91 302.008 471.95 300.498 465.82 297.708C459.69 294.918 455.08 290.548 451.97 284.578C449.18 279.248 447.69 273.818 447.49 268.288C447.29 262.758 447.19 256.488 447.19 249.488V135.508H472.25V248.288C472.25 253.458 472.31 257.958 472.43 261.778C472.55 265.598 473.37 268.818 474.88 271.448C477.75 276.388 482.3 279.188 488.55 279.868C494.8 280.548 502.13 280.288 510.57 279.088V300.208L510.58 300.218Z" fill="#2B4EED"/>
<path d="M586.242 303.68C577.332 303.68 569.852 302.25 563.802 299.38C557.752 296.51 552.842 292.75 549.062 288.1C545.282 283.44 542.392 278.37 540.402 272.88C538.412 267.39 537.062 262.02 536.342 256.77C535.622 251.52 535.262 246.91 535.262 242.93V171.32H560.562V234.69C560.562 239.7 560.982 244.86 561.812 250.15C562.652 255.44 564.242 260.35 566.592 264.89C568.942 269.43 572.242 273.09 576.502 275.87C580.762 278.65 586.312 280.05 593.152 280.05C597.602 280.05 601.822 279.32 605.802 277.84C609.782 276.37 613.262 274 616.252 270.74C619.232 267.48 621.582 263.18 623.292 257.85C625.002 252.52 625.862 246.03 625.862 238.4L641.382 244.25C641.382 255.95 639.192 266.27 634.812 275.22C630.432 284.17 624.152 291.15 615.952 296.17C607.752 301.18 597.852 303.69 586.232 303.69L586.242 303.68ZM628.852 300.22V262.98H625.862V171.32H651.042V300.22H628.842H628.852Z" fill="#2B4EED"/>
<path d="M684.459 300.221V171.321H706.659V202.591L703.549 198.531C705.139 194.391 707.209 190.591 709.759 187.131C712.309 183.671 715.249 180.821 718.589 178.601C721.859 176.211 725.499 174.361 729.509 173.051C733.529 171.731 737.649 170.941 741.859 170.661C746.079 170.381 750.139 170.601 754.039 171.321V194.711C749.819 193.591 745.149 193.271 740.009 193.751C734.879 194.231 730.159 195.861 725.869 198.641C721.809 201.271 718.609 204.451 716.259 208.191C713.909 211.931 712.219 216.091 711.189 220.661C710.149 225.241 709.629 230.071 709.629 235.161V300.211H684.449L684.459 300.221Z" fill="#2B4EED"/>
<path d="M797.262 300.03V124.59H826.022V300.03H797.262Z" fill="white"/>
<path d="M897.87 303.609C888.56 303.609 880.68 301.839 874.24 298.299C867.79 294.759 862.92 290.039 859.62 284.159C856.31 278.269 854.66 271.789 854.66 264.699C854.66 258.489 855.7 252.909 857.77 247.929C859.84 242.959 863.02 238.659 867.32 235.039C871.62 231.419 877.19 228.459 884.03 226.149C889.2 224.479 895.27 222.969 902.23 221.609C909.19 220.259 916.75 218.999 924.91 217.849C933.07 216.689 941.6 215.439 950.51 214.089L940.24 219.939C940.32 211.029 938.33 204.469 934.27 200.249C930.21 196.029 923.37 193.919 913.74 193.919C907.93 193.919 902.32 195.279 896.91 197.979C891.5 200.679 887.72 205.339 885.57 211.939L859.31 203.699C862.49 192.799 868.56 184.049 877.51 177.449C886.46 170.839 898.53 167.539 913.73 167.539C925.19 167.539 935.27 169.409 943.98 173.149C952.69 176.889 959.16 183.019 963.37 191.529C965.68 196.069 967.07 200.699 967.55 205.429C968.03 210.169 968.27 215.319 968.27 220.889V300.019H943.09V272.089L947.27 276.629C941.46 285.939 934.68 292.759 926.92 297.099C919.16 301.439 909.47 303.609 897.86 303.609H897.87ZM903.6 280.699C910.12 280.699 915.69 279.539 920.31 277.229C924.93 274.919 928.61 272.099 931.35 268.759C934.09 265.419 935.95 262.269 936.9 259.329C938.41 255.669 939.27 251.469 939.47 246.739C939.67 242.009 939.77 238.169 939.77 235.219L948.6 237.849C939.92 239.209 932.49 240.399 926.28 241.429C920.07 242.469 914.74 243.439 910.28 244.359C905.82 245.279 901.88 246.289 898.47 247.409C895.12 248.599 892.3 249.999 889.99 251.589C887.68 253.179 885.91 255.009 884.68 257.079C883.44 259.149 882.83 261.579 882.83 264.359C882.83 267.539 883.63 270.349 885.22 272.769C886.81 275.199 889.14 277.129 892.21 278.559C895.27 279.989 899.07 280.709 903.61 280.709L903.6 280.699Z" fill="white"/>
<path d="M999.082 300.028V128.168H1028.08V209.568H1024.5V300.038H999.082V300.028ZM1061.26 303.608C1048.69 303.608 1038.15 300.618 1029.64 294.658C1021.12 288.688 1014.72 280.558 1010.42 270.248C1006.12 259.948 1003.97 248.388 1003.97 235.578C1003.97 222.768 1006.12 210.988 1010.42 200.728C1014.72 190.458 1021.02 182.368 1029.34 176.438C1037.65 170.508 1047.94 167.548 1060.19 167.548C1072.44 167.548 1082.92 170.518 1091.87 176.438C1100.82 182.358 1107.76 190.438 1112.7 200.668C1117.63 210.888 1120.1 222.528 1120.1 235.578C1120.1 248.628 1117.67 260.048 1112.82 270.308C1107.96 280.578 1101.12 288.688 1092.29 294.658C1083.46 300.628 1073.11 303.608 1061.26 303.608ZM1056.84 277.838C1064.32 277.838 1070.49 275.968 1075.34 272.228C1080.19 268.488 1083.79 263.418 1086.14 257.008C1088.49 250.598 1089.66 243.458 1089.66 235.588C1089.66 227.718 1088.46 220.688 1086.08 214.288C1083.69 207.878 1079.99 202.788 1074.98 199.008C1069.97 195.228 1063.6 193.338 1055.88 193.338C1048.16 193.338 1042.59 195.108 1037.98 198.648C1033.37 202.188 1029.96 207.128 1027.78 213.448C1025.59 219.778 1024.49 227.158 1024.49 235.588C1024.49 244.018 1025.59 251.298 1027.78 257.668C1029.97 264.038 1033.43 268.988 1038.16 272.528C1042.9 276.068 1049.12 277.838 1056.84 277.838Z" fill="white"/>
</g>
<defs>
<linearGradient id="paint0_linear_1_161" x1="770.859" y1="214.57" x2="1200" y2="214.57" gradientUnits="userSpaceOnUse">
<stop stop-color="#6427E3"/>
<stop offset="1" stop-color="#B625EF"/>
</linearGradient>
<clipPath id="clip0_1_161">
<rect width="1200" height="429.14" fill="white"/>
</clipPath>
</defs>
</svg>
